<svg width="32" height="32" viewBox="0 0 32 32" fill="none" xmlns="http://www.w3.org/2000/svg">
<g clip-path="url(#clip0_242_4595)">
<path d="M27.7045 6.91351C27.6958 6.84032 27.6095 6.18554 27.1641 5.73964L22.1512 0.727208C21.7058 0.281798 21.0505 0.195043 20.9773 0.186803C20.9589 0.18438 20.9405 0.183411 20.9221 0.183411H6.8667C5.53047 0.183411 4.44336 1.27052 4.44336 2.60675V28.7788C4.44336 30.115 5.53047 31.2022 6.8667 31.2022H25.2841C26.6203 31.2022 27.7074 30.115 27.7074 28.7788V6.96876C27.7074 6.95034 27.7064 6.93193 27.7045 6.91351ZM26.4783 6.42496C26.4953 6.44193 26.5074 6.46471 26.5224 6.48409H22.8607C22.0591 6.48409 21.4067 5.83173 21.4067 5.03009V1.36842C21.4261 1.38345 21.4484 1.39556 21.4659 1.41253L26.4783 6.42496ZM25.2841 30.2328H6.8667C6.06506 30.2328 5.4127 29.5805 5.4127 28.7788V2.60675C5.4127 1.80511 6.06506 1.15275 6.8667 1.15275H20.4374V5.03009C20.4374 6.36632 21.5245 7.45343 22.8607 7.45343H26.7381V28.7788C26.7381 29.5805 26.0857 30.2328 25.2841 30.2328Z" fill="white"/>
</g>
<defs>
<clipPath id="clip0_242_4595">
<rect width="31.0187" height="31.0187" fill="white" transform="translate(0.566406 0.183411)"/>
</clipPath>
</defs>
</svg>
